<svg width="64" height="64" viewBox="0 0 64 64" fill="none" xmlns="http://www.w3.org/2000/svg">
<mask id="mask0" mask-type="alpha" maskUnits="userSpaceOnUse" x="0" y="0" width="64" height="64">
<path d="M64 0H0V64H64V0Z" fill="white"/>
</mask>
<g mask="url(#mask0)">
<path d="M32.0005 63.04C49.1434 63.04 63.0405 49.1429 63.0405 32C63.0405 14.8571 49.1434 0.960022 32.0005 0.960022C14.8575 0.960022 0.960449 14.8571 0.960449 32C0.960449 49.1429 14.8575 63.04 32.0005 63.04Z" fill="url(#paint0_linear)"/>
<path d="M45.5836 44.3665L35.085 18.9938C34.4917 17.6827 33.6147 17.04 32.4538 17.04H31.5253C30.3645 17.04 29.4874 17.6827 28.8942 18.9938L24.3287 30.048H20.8718C19.836 30.052 18.9963 30.8889 18.9888 31.9247V31.9504C18.9963 32.9862 19.836 33.823 20.8718 33.827H22.7287L18.3697 44.3665C18.2872 44.5977 18.2437 44.841 18.2407 45.0865C18.2407 45.6778 18.4213 46.1405 18.7566 46.5004C19.092 46.8604 19.5562 47.0401 20.1496 47.0401C20.5392 47.0348 20.9175 46.909 21.2327 46.68C21.5681 46.4487 21.8002 46.1145 21.9808 45.7289L26.7787 33.8266H30.1063C31.1421 33.8226 31.9818 32.9858 31.9894 31.95V31.8985C31.9818 30.8627 31.1421 30.0259 30.1063 30.0219H28.3266L31.9895 20.896L41.9723 45.729C42.1529 46.1146 42.3851 46.449 42.7204 46.6801C43.0357 46.9092 43.4142 47.0349 43.8039 47.0401C44.3971 47.0401 44.8615 46.8602 45.1968 46.5003C45.5322 46.1403 45.7127 45.6776 45.7127 45.0864C45.7224 44.8399 45.6784 44.5942 45.5836 44.3665Z" fill="white"/>
</g>
<defs>
<linearGradient id="paint0_linear" x1="57.267" y1="15.0522" x2="11.0795" y2="53.9143" gradientUnits="userSpaceOnUse">
<stop stop-color="#B6509E"/>
<stop offset="1" stop-color="#2EBAC6"/>
</linearGradient>
</defs>
</svg>
