<svg width="90" height="89" viewBox="0 0 90 89" fill="none" xmlns="http://www.w3.org/2000/svg">
<path d="M8.3568 25.6044L6.8963 24.1439L10.4757 20.5616L6.8963 16.9794L8.35968 15.516L13.4024 20.5616L8.3568 25.6044ZM7.62655 4.74911C6.83305 4.74911 6.18905 5.39311 6.18905 6.18661C6.18905 6.98011 6.83305 7.62411 7.62655 7.62411C8.42005 7.62411 9.06406 6.98011 9.06406 6.18661C9.06406 5.39311 8.42005 4.74911 7.62655 4.74911ZM14.8141 6.18661C14.8141 6.98011 14.1701 7.62411 13.3766 7.62411C12.5831 7.62411 11.9391 6.98011 11.9391 6.18661C11.9391 5.39311 12.5831 4.74911 13.3766 4.74911C14.1701 4.74911 14.8141 5.39311 14.8141 6.18661ZM20.5641 6.18661C20.5641 6.98011 19.9201 7.62411 19.1266 7.62411C18.3331 7.62411 17.6891 6.98011 17.6891 6.18661C17.6891 5.39311 18.3331 4.74911 19.1266 4.74911C19.9201 4.74911 20.5641 5.39311 20.5641 6.18661ZM52.1891 17.6866C52.1891 18.4801 51.5451 19.1241 50.7516 19.1241C49.9581 19.1241 49.3141 18.4801 49.3141 17.6866C49.3141 16.8931 49.9581 16.2491 50.7516 16.2491C51.5451 16.2491 52.1891 16.8931 52.1891 17.6866ZM57.9391 17.6866C57.9391 18.4801 57.2951 19.1241 56.5016 19.1241C55.7081 19.1241 55.0641 18.4801 55.0641 17.6866C55.0641 16.8931 55.7081 16.2491 56.5016 16.2491C57.2951 16.2491 57.9391 16.8931 57.9391 17.6866ZM63.6891 17.6866C63.6891 18.4801 63.0451 19.1241 62.2516 19.1241C61.4581 19.1241 60.8141 18.4801 60.8141 17.6866C60.8141 16.8931 61.4581 16.2491 62.2516 16.2491C63.0451 16.2491 63.6891 16.8931 63.6891 17.6866ZM14.8141 69.4366C14.8141 70.2301 14.1701 70.8741 13.3766 70.8741C12.5831 70.8741 11.9391 70.2301 11.9391 69.4366C11.9391 68.6431 12.5831 67.9991 13.3766 67.9991C14.1701 67.9991 14.8141 68.6431 14.8141 69.4366ZM36.3766 40.2841H1.87655C1.30443 40.2841 0.841553 39.8212 0.841553 39.2491V1.87411C0.841553 1.30199 1.30443 0.839111 1.87655 0.839111H36.3766C36.9487 0.839111 37.4116 1.30199 37.4116 1.87411V39.2491C37.4116 39.8212 36.9487 40.2841 36.3766 40.2841ZM35.3416 11.5341H2.91155V38.2141H35.3416V11.5341ZM35.3416 2.90911H2.91155V9.46699H35.3416V2.90911ZM89.1616 13.3741V62.2491C89.1616 62.8212 88.6987 63.2841 88.1266 63.2841H55.6132C54.7478 64.6382 53.6294 65.8285 52.3012 66.7772C60.5668 69.796 66.1558 77.639 66.1558 86.6205L66.1616 88.1184L64.0887 88.1241L64.0829 86.6234C64.0829 77.7741 58.0742 70.1525 49.4693 68.0796C49.0381 67.979 48.7218 67.611 48.6816 67.1711C48.6413 66.7312 48.8828 66.3115 49.2882 66.1332C53.0688 64.4312 55.5126 60.6707 55.5126 56.548C55.5126 50.7491 50.7976 46.0341 45.0016 46.0341C39.1998 46.0341 34.4791 50.7491 34.4791 56.548C34.4791 60.6707 36.9228 64.4312 40.7063 66.1332C41.1117 66.3115 41.3532 66.7312 41.3129 67.1711C41.2727 67.611 40.9536 67.979 40.5252 68.0796C31.9203 70.1525 25.9087 77.7741 25.9087 86.6205L25.9116 88.1184L23.8416 88.1241L23.8387 86.6234C23.8387 77.639 29.4248 69.7931 37.6933 66.7772C34.4216 64.4427 32.4091 60.642 32.4091 56.5451C32.4091 49.9556 37.5036 44.5334 43.9666 44.0044V13.3741C43.9666 12.802 44.4294 12.3391 45.0016 12.3391H88.1266C88.6987 12.3391 89.1616 12.802 89.1616 13.3741ZM87.0916 23.0341H46.0366V44.0072C52.4938 44.5362 57.5854 49.9585 57.5854 56.548C57.5854 58.1752 57.2692 59.7536 56.6798 61.2141H87.0916V23.0341ZM87.0916 14.4091H46.0366V20.9641H87.0916V14.4091ZM62.2516 32.4641H50.7516V34.5341H62.2516V32.4641ZM66.9666 49.3116C66.9666 44.7777 70.6552 41.0891 75.1891 41.0891C79.7229 41.0891 83.4116 44.7777 83.4116 49.3116C83.4116 53.8455 79.7229 57.5341 75.1891 57.5341C70.6552 57.5341 66.9666 53.8455 66.9666 49.3116ZM80.1973 45.7639L76.2212 49.74L76.2097 55.3606C79.1134 54.869 81.3387 52.3534 81.3387 49.3116C81.3416 47.9891 80.9103 46.7672 80.1973 45.7639ZM69.0366 49.3116C69.0366 52.3447 71.2475 54.8546 74.1368 55.3577L74.1541 48.8804L78.7311 44.3005C77.7277 43.5875 76.5087 43.1591 75.1862 43.1591C71.7966 43.1591 69.0366 45.9191 69.0366 49.3116ZM22.0016 26.7141H13.3766V28.7841H22.0016V26.7141ZM9.06406 60.4091H17.6891V58.3391H9.06406V60.4091ZM9.06406 54.6591H17.6891V52.5891H9.06406V54.6591ZM62.2516 38.2141H50.7516V40.2841H62.2516V38.2141ZM82.3766 32.4641H70.8766V34.5341H82.3766V32.4641ZM82.3766 26.7141H70.8766V28.7841H82.3766V26.7141ZM62.2516 26.7141H50.7516V28.7841H62.2516V26.7141ZM23.0366 49.5531V72.0701C23.0366 73.568 21.8204 74.7841 20.3226 74.7841H6.43055C4.93268 74.7841 3.71655 73.5651 3.71655 72.0701V49.5531C3.71655 48.0552 4.93268 46.8391 6.43055 46.8391H20.3226C21.8204 46.8391 23.0366 48.0552 23.0366 49.5531ZM20.9666 66.1591H5.78655V72.0701C5.78655 72.4237 6.07693 72.7141 6.43055 72.7141H20.3226C20.6791 72.7141 20.9666 72.4237 20.9666 72.0701V66.1591ZM20.9666 49.5531C20.9666 49.1995 20.6762 48.9091 20.3226 48.9091H6.43055C6.07405 48.9091 5.78655 49.1995 5.78655 49.5531V64.0891H20.9666V49.5531Z" fill="#433BCE"/>
</svg>
