<svg width="21" height="21" viewBox="0 0 21 21" fill="none" xmlns="http://www.w3.org/2000/svg">
<path d="M10.5 4.5L9.4275 5.54475L13.6125 9.75H4.5V11.25H13.6125L9.4275 15.4298L10.5 16.5L16.5 10.5L10.5 4.5Z" fill="#09AA74"/>
<path d="M10.5 21C8.4233 21 6.39323 20.3842 4.66652 19.2304C2.9398 18.0767 1.59399 16.4368 0.79927 14.5182C0.00454947 12.5996 -0.203386 10.4884 0.201759 8.45156C0.606904 6.41476 1.60693 4.54384 3.07538 3.07538C4.54384 1.60693 6.41476 0.606904 8.45156 0.201759C10.4884 -0.203386 12.5996 0.00454947 14.5182 0.79927C16.4368 1.59399 18.0767 2.9398 19.2304 4.66652C20.3842 6.39323 21 8.4233 21 10.5C20.9969 13.2838 19.8896 15.9527 17.9212 17.9212C15.9527 19.8896 13.2838 20.9969 10.5 21ZM10.5 1.50001C8.71997 1.50001 6.97992 2.02785 5.49987 3.01678C4.01983 4.00571 2.86628 5.41132 2.18509 7.05585C1.5039 8.70039 1.32567 10.51 1.67294 12.2558C2.0202 14.0016 2.87737 15.6053 4.13604 16.864C5.39472 18.1226 6.99836 18.9798 8.74419 19.3271C10.49 19.6743 12.2996 19.4961 13.9442 18.8149C15.5887 18.1337 16.9943 16.9802 17.9832 15.5001C18.9722 14.0201 19.5 12.28 19.5 10.5C19.4973 8.11389 18.5482 5.82629 16.861 4.13905C15.1737 2.45181 12.8861 1.50272 10.5 1.50001Z" fill="#09AA74"/>
</svg>
