<svg width="32" height="35" viewBox="0 0 32 35" fill="none" xmlns="http://www.w3.org/2000/svg">
<path d="M17.1428 0.422852H14.8572V4.02783H17.1428V0.422852Z" fill="white"/>
<path d="M32 16.043H28.5714V18.4468H32V16.043Z" fill="white"/>
<path d="M17.1428 30.4619H14.8572V34.0674H17.1428V30.4619Z" fill="white"/>
<path d="M3.42859 16.043H0V18.4468H3.42859V16.043Z" fill="white"/>
<path d="M5.55901 4.59131L3.94275 6.29053L6.36714 8.83936L7.9834 7.14014L5.55901 4.59131Z" fill="white"/>
<path d="M26.424 4.57978L23.9996 7.12891L25.6158 8.82832L28.0402 6.2792L26.424 4.57978Z" fill="white"/>
<path d="M25.6188 25.658L24.0026 27.3574L26.4269 29.9065L28.0431 28.2071L25.6188 25.658Z" fill="white"/>
<path d="M3.9657 28.2153L6.38849 25.6558L7.99988 27.3621L5.57708 29.9097L3.9657 28.2153Z" fill="white"/>
<path d="M16 7.63184C14.1917 7.63184 12.4241 8.19562 10.9205 9.25188C9.41699 10.3082 8.24514 11.8095 7.55314 13.566C6.86114 15.3225 6.68008 17.2553 7.03286 19.12C7.38564 20.9847 8.2564 22.6975 9.53505 24.0419C10.8137 25.3863 12.4428 26.3018 14.2163 26.6727C15.9899 27.0436 17.8282 26.8533 19.4988 26.1257C21.1694 25.3981 22.5974 24.166 23.602 22.5852C24.6066 21.0044 25.1428 19.1459 25.1428 17.2446C25.1428 14.6952 24.1796 12.2501 22.465 10.4474C20.7503 8.64461 18.4248 7.63184 16 7.63184ZM16 24.4542C14.1814 24.4542 12.4372 23.6946 11.1513 22.3426C9.86533 20.9905 9.14289 19.1567 9.14289 17.2446C9.14289 15.3325 9.86533 13.4987 11.1513 12.1467C12.4372 10.7946 14.1814 10.035 16 10.035V24.4542Z" fill="white"/>
</svg>
