<?xml version="1.0" encoding="utf-8"?>
<!-- Generator: Adobe Illustrator 25.4.0, SVG Export Plug-In . SVG Version: 6.00 Build 0)  -->
<svg version="1.1" id="Calque_1" xmlns="http://www.w3.org/2000/svg" xmlns:xlink="http://www.w3.org/1999/xlink" x="0px" y="0px"
	 viewBox="0 0 256 256" style="enable-background:new 0 0 256 256;" xml:space="preserve">
<style type="text/css">
	.st0{fill:#EDF0F2;}
	.st1{fill:url(#SVGID_1_);}
	.st2{fill:#FFFFFF;}
	.st3{fill:url(#Layer_2_00000029011813719822252880000011839510016797565841_);}
</style>
<g>
	<g>
		<circle class="st0" cx="128.1" cy="128.2" r="127.9"/>
		
			<linearGradient id="SVGID_1_" gradientUnits="userSpaceOnUse" x1="92.0265" y1="39.8222" x2="132.1206" y2="262.1152" gradientTransform="matrix(1 0 0 1 0 -25.4646)">
			<stop  offset="0" style="stop-color:#27D3A2"/>
			<stop  offset="1" style="stop-color:#9388FD"/>
		</linearGradient>
		<path class="st1" d="M209.3,226.9c-19.5,16.1-43.4,26-68.6,28.4c-33.7,3.3-67.4-6.9-93.7-28.4c-26.2-21.5-42.8-52.5-46.2-86.3
			c-2.5-25.2,2.5-50.5,14.4-72.8s30.2-40.6,52.5-52.5s47.6-17,72.8-14.5s49,12.3,68.6,28.4l-25.8,31.5C170,49.8,153.7,43,136.5,41.4
			c-17.2-1.7-34.4,1.8-49.6,9.9S59.3,71.9,51.1,87.1c-8.1,15.2-11.5,32.5-9.8,49.6c2.3,23,13.6,44.2,31.5,58.8
			c17.9,14.7,40.9,21.6,63.9,19.3c17.2-1.7,33.4-8.5,46.7-19.4L209.3,226.9z"/>
		<path class="st2" d="M128.5,232.9c57.7,0,104.4-46.8,104.4-104.4C232.9,70.8,186.2,24,128.5,24S24,70.8,24,128.5
			S70.8,232.9,128.5,232.9z"/>
	</g>
</g>
<linearGradient id="Layer_2_00000011013341293039124680000017950783005909898403_" gradientUnits="userSpaceOnUse" x1="129.3" y1="72.6371" x2="129.3" y2="181.8972">
	<stop  offset="0" style="stop-color:#283947"/>
	<stop  offset="1" style="stop-color:#657786"/>
</linearGradient>
<path id="Layer_2" style="fill:url(#Layer_2_00000011013341293039124680000017950783005909898403_);" d="M163.76,96.5l-3,3
	c14.8377,16.226,14.8377,41.094,0,57.32l3,3c16.5078-17.9058,16.5078-45.4842,0-63.39V96.5z M100.67,96.76
	c16.226-14.8377,41.094-14.8377,57.32,0l3-3c-17.9058-16.5078-45.4842-16.5078-63.39,0L100.67,96.76z M97.86,156.85
	c-14.8194-16.2216-14.8194-41.0684,0-57.29l-3-3c-16.5078,17.9058-16.5078,45.4842,0,63.39L97.86,156.85z M157.95,159.62
	c-16.226,14.8377-41.094,14.8377-57.32,0l-3,3c17.9058,16.5078,45.4842,16.5078,63.39,0L157.95,159.62z M148.24,118.19
	c-0.6-6.26-6-8.36-12.83-9v-8.62h-5.28v8.46c-1.39,0-2.81,0-4.22,0v-8.46h-5.24v8.68h-10.71v5.65c0,0,3.9-0.07,3.84,0
	c1.4616-0.1608,2.788,0.8649,3,2.32v23.76c-0.0304,0.4988-0.2612,0.9641-0.64,1.29c-0.3717,0.3322-0.8629,0.4983-1.36,0.46
	c0.07,0.06-3.84,0-3.84,0l-1,6.31h10.61v8.82h5.28v-8.69h4.22v8.65h5.29v-8.72c8.92-0.54,15.14-2.74,15.92-11.09
	c0.63-6.72-2.53-9.72-7.58-10.93C146.77,125.57,148.67,122.77,148.24,118.19z M140.84,136.97c0,6.56-11.24,5.81-14.82,5.81v-11.64
	C129.6,131.15,140.84,130.12,140.84,136.97z M138.39,120.57c0,6-9.38,5.27-12.36,5.27v-10.58
	C129.01,115.26,138.39,114.32,138.39,120.57z M129.29,182.83c-30.1713-0.0055-54.6255-24.4687-54.62-54.64
	c0.0055-30.1713,24.4687-54.6255,54.64-54.62c30.1635,0.0055,54.6145,24.4565,54.62,54.62
	c0.0055,30.1713-24.4487,54.6345-54.62,54.64C129.3033,182.83,129.2967,182.83,129.29,182.83z M129.29,77.83
	c-27.802,0.0221-50.3221,22.578-50.3,50.38s22.578,50.3221,50.38,50.3c27.7786-0.0221,50.289-22.5414,50.3-50.32
	c0.011-27.802-22.518-50.349-50.32-50.36C129.33,77.83,129.31,77.83,129.29,77.83z"/>
</svg>
