<svg width="32" height="35" viewBox="0 0 32 35" fill="none" xmlns="http://www.w3.org/2000/svg">
<path d="M16 0.422852C12.8355 0.422852 9.74207 1.40945 7.11088 3.25787C4.4797 5.1063 2.42894 7.73354 1.21793 10.8074C0.00693253 13.8812 -0.309921 17.2635 0.307443 20.5267C0.924806 23.7898 2.44866 26.7872 4.6863 29.1398C6.92394 31.4924 9.77487 33.0946 12.8786 33.7437C15.9823 34.3927 19.1993 34.0596 22.1229 32.7864C25.0466 31.5132 27.5454 29.357 29.3035 26.5907C31.0616 23.8243 32 20.572 32 17.2449C31.9952 12.7849 30.308 8.50911 27.3084 5.35546C24.3089 2.2018 20.242 0.427876 16 0.422852ZM2.30858 17.7183L3.83818 18.254L5.71429 21.2133V22.755C5.7143 23.0737 5.83471 23.3793 6.04903 23.6047L9.14286 26.8575V29.713C7.12912 28.4878 5.44513 26.7438 4.24949 24.6454C3.05385 22.547 2.38591 20.1631 2.30858 17.7183ZM16 31.6637C15.0114 31.6617 14.0259 31.547 13.0608 31.3217L13.7143 29.2606L15.7767 23.8396C15.8455 23.6586 15.8715 23.4628 15.8523 23.2689C15.8331 23.075 15.7693 22.889 15.6665 22.7268L14.0536 20.1831C13.9492 20.0185 13.8078 19.8835 13.6419 19.7902C13.476 19.6968 13.2908 19.648 13.1026 19.648H7.46835L6.04183 17.3979L8.47326 14.8417H10.2857V17.2449H12.5714V13.9593L16.9922 5.82524L15.0078 4.63304L14.0307 6.43072H10.8974L9.65623 4.47347C11.3224 3.54895 13.1536 2.99974 15.033 2.8609C16.9124 2.72206 18.7986 2.99663 20.5714 3.6671V7.63229C20.5714 7.95096 20.6918 8.25659 20.9062 8.48193C21.1205 8.70727 21.4112 8.83386 21.7143 8.83386H23.3883C23.5765 8.83387 23.7617 8.78504 23.9276 8.6917C24.0935 8.59836 24.2349 8.4634 24.3393 8.2988L25.3415 6.71825C26.6471 7.99806 27.7032 9.53287 28.4509 11.237H23.7943C23.5301 11.237 23.274 11.3332 23.0697 11.5094C22.8654 11.6855 22.7254 11.9306 22.6736 12.203L21.8483 17.5749C21.8095 17.8276 21.8485 18.0867 21.9595 18.3145C22.0705 18.5423 22.2478 18.7268 22.4655 18.8413L26.2857 20.8496L27.0687 25.7228C25.8003 27.5609 24.1362 29.0573 22.2124 30.0898C20.2887 31.1223 18.1599 31.6617 16 31.6637Z" fill="white"/>
</svg>
