<svg width="32" height="32" viewBox="0 0 32 32" fill="none" xmlns="http://www.w3.org/2000/svg">
<path d="M16 0C12.8355 0 9.74207 0.938384 7.11088 2.69649C4.4797 4.45459 2.42894 6.95345 1.21793 9.87707C0.00693253 12.8007 -0.309921 16.0177 0.307443 19.1214C0.924806 22.2251 2.44866 25.0761 4.6863 27.3137C6.92394 29.5513 9.77487 31.0752 12.8786 31.6926C15.9823 32.3099 19.1993 31.9931 22.1229 30.7821C25.0466 29.5711 27.5454 27.5203 29.3035 24.8891C31.0616 22.2579 32 19.1645 32 16C31.9952 11.758 30.308 7.69112 27.3084 4.69157C24.3089 1.69202 20.242 0.00477931 16 0ZM2.30858 16.4503L3.83818 16.9598L5.71429 19.7745V21.2409C5.7143 21.544 5.83471 21.8347 6.04903 22.049L9.14286 25.1429V27.8589C7.12912 26.6935 5.44513 25.0348 4.24949 23.0389C3.05385 21.043 2.38591 18.7756 2.30858 16.4503ZM16 29.7143C15.0114 29.7124 14.0259 29.6033 13.0608 29.3889L13.7143 27.4286L15.7767 22.2725C15.8455 22.1003 15.8715 21.914 15.8523 21.7297C15.8331 21.5453 15.7693 21.3683 15.6665 21.2141L14.0536 18.7946C13.9492 18.6381 13.8078 18.5097 13.6419 18.4209C13.476 18.3322 13.2908 18.2857 13.1026 18.2857H7.46835L6.04183 16.1456L8.47326 13.7143H10.2857V16H12.5714V12.875L16.9922 5.1384L15.0078 4.00446L14.0307 5.71429H10.8974L9.65623 3.85269C11.3224 2.97334 13.1536 2.45097 15.033 2.31891C16.9124 2.18686 18.7986 2.44801 20.5714 3.08571V6.85714C20.5714 7.16025 20.6918 7.45094 20.9062 7.66527C21.1205 7.87959 21.4112 8 21.7143 8H23.3883C23.5765 8.00001 23.7617 7.95356 23.9276 7.86478C24.0935 7.77601 24.2349 7.64764 24.3393 7.49109L25.3415 5.98777C26.6471 7.20505 27.7032 8.66485 28.4509 10.2857H23.7943C23.5301 10.2857 23.274 10.3772 23.0697 10.5448C22.8654 10.7123 22.7254 10.9454 22.6736 11.2045L21.8483 16.3139C21.8095 16.5543 21.8485 16.8007 21.9595 17.0173C22.0705 17.234 22.2478 17.4095 22.4655 17.5184L26.2857 19.4286L27.0687 24.0637C25.8003 25.8119 24.1362 27.2352 22.2124 28.2173C20.2887 29.1993 18.1599 29.7123 16 29.7143Z" fill="black"/>
</svg>
