<svg width="65" height="64" viewBox="0 0 65 64" fill="none" xmlns="http://www.w3.org/2000/svg">
<path d="M33.0009 63.6C50.4531 63.6 64.6009 49.4522 64.6009 32C64.6009 14.5478 50.4531 0.400024 33.0009 0.400024C15.5487 0.400024 1.40088 14.5478 1.40088 32C1.40088 49.4522 15.5487 63.6 33.0009 63.6Z" fill="white" stroke="#E0DCF4" stroke-width="0.3"/>
<path d="M33.0011 32.835C22.0542 32.835 13.1611 35.9111 13.1611 40.2208C13.1611 44.5306 22.0542 47.6067 33.0011 47.6067C43.948 47.6067 52.8411 44.5306 52.8411 40.2208C52.8411 35.9111 43.948 32.835 33.0011 32.835ZM33.0011 33.635C43.5166 33.635 52.0411 36.5836 52.0411 40.2208C52.0411 43.8581 43.5166 46.8067 33.0011 46.8067C22.4856 46.8067 13.9611 43.8581 13.9611 40.2208C13.9611 36.5836 22.4856 33.635 33.0011 33.635Z" fill="white"/>
<path d="M33 47.2067C43.7365 47.2067 52.44 44.0791 52.44 40.2209C52.44 36.3627 43.7365 33.235 33 33.235C22.2636 33.235 13.5601 36.3627 13.5601 40.2209C13.5601 44.0791 22.2636 47.2067 33 47.2067Z" fill="black" stroke="white" stroke-width="0.3"/>
<path d="M33.0011 34.4114C41.6026 34.4114 48.5755 31.8824 48.5755 28.7627C48.5755 25.6429 41.6026 23.1139 33.0011 23.1139C24.3996 23.1139 17.4268 25.6429 17.4268 28.7627C17.4268 31.8824 24.3996 34.4114 33.0011 34.4114Z" fill="black" stroke="white" stroke-width="0.3"/>
<path d="M33.0007 22.7139C24.1888 22.7139 17.0264 25.1913 17.0264 28.7626C17.0264 32.334 24.1888 34.8114 33.0007 34.8114C41.8127 34.8114 48.9751 32.334 48.9751 28.7626C48.9751 25.1913 41.8127 22.7139 33.0007 22.7139ZM33.0007 23.5139C41.3813 23.5139 48.1751 25.8638 48.1751 28.7626C48.1751 31.6615 41.3813 34.0114 33.0007 34.0114C24.6202 34.0114 17.8264 31.6615 17.8264 28.7626C17.8264 25.8638 24.6202 23.5139 33.0007 23.5139Z" fill="white"/>
<path d="M33.0013 23.7447C39.6885 23.7447 45.1095 21.7524 45.1095 19.2948C45.1095 16.8372 39.6885 14.845 33.0013 14.845C26.3141 14.845 20.8931 16.8372 20.8931 19.2948C20.8931 21.7524 26.3141 23.7447 33.0013 23.7447Z" fill="black" stroke="white" stroke-width="0.3"/>
<path d="M33.0004 14.4449C26.1027 14.4449 20.4922 16.3856 20.4922 19.2948C20.4922 22.204 26.1027 24.1446 33.0004 24.1446C39.8981 24.1446 45.5086 22.204 45.5086 19.2948C45.5086 16.3856 39.8981 14.4449 33.0004 14.4449ZM33.0004 15.2449C39.4667 15.2449 44.7086 17.0581 44.7086 19.2948C44.7086 21.5315 39.4667 23.3446 33.0004 23.3446C26.5341 23.3446 21.2922 21.5315 21.2922 19.2948C21.2922 17.0581 26.5341 15.2449 33.0004 15.2449Z" fill="white"/>
<circle cx="32" cy="32" r="31.5" stroke="black" stroke-opacity="0.5"/>
</svg>
