<svg width="32" height="32" viewBox="0 0 32 32" fill="none" xmlns="http://www.w3.org/2000/svg">
<path d="M17.1429 0H14.8571V3.42857H17.1429V0Z" fill="black"/>
<path d="M32 14.8571H28.5714V17.1429H32V14.8571Z" fill="black"/>
<path d="M17.1429 28.5714H14.8571V32H17.1429V28.5714Z" fill="black"/>
<path d="M3.42857 14.8571H0V17.1429H3.42857V14.8571Z" fill="black"/>
<path d="M5.55898 3.96491L3.94273 5.58116L6.3671 8.00552L7.98334 6.38928L5.55898 3.96491Z" fill="black"/>
<path d="M26.424 3.95381L23.9996 6.37818L25.6158 7.99442L28.0402 5.57006L26.424 3.95381Z" fill="black"/>
<path d="M25.6188 24.0025L24.0025 25.6188L26.4269 28.0432L28.0431 26.4269L25.6188 24.0025Z" fill="black"/>
<path d="M3.96564 26.4343L6.38849 24L7.99992 25.6229L5.57707 28.0457L3.96564 26.4343Z" fill="black"/>
<path d="M16 6.85714C14.1917 6.85714 12.424 7.39336 10.9205 8.39799C9.41697 9.40262 8.24511 10.8305 7.55311 12.5012C6.86111 14.1718 6.68005 16.0101 7.03283 17.7837C7.38561 19.5572 8.25638 21.1863 9.53503 22.465C10.8137 23.7436 12.4428 24.6144 14.2163 24.9672C15.9899 25.32 17.8282 25.1389 19.4988 24.4469C21.1695 23.7549 22.5974 22.583 23.602 21.0795C24.6066 19.576 25.1429 17.8083 25.1429 16C25.1429 13.5752 24.1796 11.2496 22.465 9.53502C20.7504 7.82041 18.4248 6.85714 16 6.85714ZM16 22.8571C14.1814 22.8571 12.4372 22.1347 11.1513 20.8487C9.86531 19.5628 9.14287 17.8186 9.14287 16C9.14287 14.1814 9.86531 12.4372 11.1513 11.1513C12.4372 9.8653 14.1814 9.14286 16 9.14286V22.8571Z" fill="black"/>
</svg>
