<svg width="64" height="64" viewBox="0 0 64 64" fill="none" xmlns="http://www.w3.org/2000/svg">
<g clip-path="url(#clip0)">
<path d="M29.6738 31.9961L49.266 43.1019C49.4235 43.1955 49.6033 43.246 49.787 43.2481C49.9707 43.2502 50.1516 43.2039 50.3112 43.1138C50.4708 43.0238 50.6033 42.8933 50.6951 42.7359C50.7869 42.5784 50.8346 42.3995 50.8334 42.2177V21.759C50.8357 21.5769 50.7885 21.3975 50.6968 21.2397C50.605 21.0818 50.4721 20.9512 50.3119 20.8616C50.1516 20.7721 49.97 20.7267 49.786 20.7304C49.6021 20.7341 49.4225 20.7867 49.266 20.8826L29.6738 31.9961Z" fill="#31CB9E"/>
<path d="M48.8507 15.9657L35.4574 6.21713C35.3188 6.11178 35.156 6.0418 34.9836 6.01336C34.8111 5.98493 34.6342 5.99892 34.4685 6.05409C34.3028 6.10926 34.1534 6.20392 34.0334 6.32973C33.9134 6.45554 33.8265 6.60864 33.7803 6.77552L28.8901 28.4907L48.7331 17.6331C48.8841 17.5562 49.0125 17.4421 49.1059 17.3018C49.1994 17.1615 49.2547 16.9998 49.2665 16.8322C49.2783 16.6645 49.2462 16.4967 49.1734 16.345C49.1006 16.1932 48.9894 16.0625 48.8507 15.9657Z" fill="#31CB9E"/>
<path d="M35.4418 57.7673L48.8507 48.0188C48.9913 47.921 49.1041 47.7891 49.1784 47.6357C49.2527 47.4824 49.2859 47.3127 49.2749 47.143C49.2639 46.9733 49.209 46.8092 49.1155 46.6665C49.022 46.5238 48.893 46.4073 48.7409 46.3281L28.8901 35.4705L33.7803 57.1857C33.8209 57.3544 33.9032 57.5105 34.0198 57.6399C34.1364 57.7694 34.2837 57.8682 34.4484 57.9274C34.6131 57.9866 34.7901 58.0044 34.9635 57.9791C35.1369 57.9539 35.3012 57.8864 35.4418 57.7828" fill="#31CB9E"/>
<path d="M24.5796 31.5929L29.6736 8.01645C29.7125 7.82108 29.6916 7.61866 29.6136 7.43511C29.5356 7.25156 29.404 7.09522 29.2356 6.98612C29.0673 6.87701 28.8699 6.82009 28.6687 6.82265C28.4675 6.82521 28.2716 6.88714 28.1062 7.00049L15.0578 16.9041C14.7274 17.155 14.46 17.478 14.2765 17.8479C14.093 18.2179 13.9983 18.6248 13.9998 19.0369V44.1644C13.9934 44.5817 14.0857 44.9948 14.2695 45.3705C14.4532 45.7462 14.7231 46.0741 15.0578 46.3282L28.0435 56.2008C28.2089 56.3141 28.4048 56.3761 28.606 56.3786C28.8072 56.3812 29.0046 56.3243 29.1729 56.2152C29.3413 56.1061 29.4729 55.9497 29.5509 55.7662C29.6289 55.5826 29.6498 55.3802 29.6109 55.1848L24.5796 31.5929Z" fill="#31CB9E"/>
</g>
<circle cx="32" cy="32" r="31.5" stroke="black" stroke-opacity="0.5"/>
<defs>
<clipPath id="clip0">
<rect width="36.8333" height="52" fill="white" transform="translate(14 6)"/>
</clipPath>
</defs>
</svg>
