<svg width="175" height="40" viewBox="0 0 175 40" fill="none" xmlns="http://www.w3.org/2000/svg">
<path d="M51.6464 2.5434H58.9824V36.7651H51.6464V2.5434Z" fill="black"/>
<path d="M78.7049 11.3214C81.6308 11.3214 84.0479 12.2543 85.9561 14.0778C87.8643 15.9013 88.7972 18.9121 88.7972 23.1103V36.7651H81.8853V23.5344C81.8853 19.2089 80.1891 17.0462 76.7967 17.0462C75.0157 17.0462 73.6163 17.6399 72.641 18.8697C71.6657 20.0571 71.1569 21.7533 71.1569 23.9584V36.8075H64.2449V11.6182H70.2664L70.9024 14.7563C71.7929 13.6961 72.853 12.848 74.0828 12.2543C75.3549 11.6607 76.8815 11.3214 78.7049 11.3214Z" fill="black"/>
<path d="M118.351 2.5434V36.7651H112.329L111.651 33.2878C109.743 35.7898 107.114 37.062 103.806 37.062C101.601 37.062 99.6079 36.5531 97.8269 35.4929C96.0459 34.4328 94.689 32.9062 93.6712 30.9555C92.6959 29.0048 92.1871 26.7149 92.1871 24.1705C92.1871 21.6261 92.6959 19.3786 93.6712 17.4703C94.689 15.5197 96.0883 13.993 97.8269 12.9753C99.6079 11.9151 101.643 11.3639 103.848 11.3639C107.114 11.3639 109.658 12.5088 111.439 14.7988V2.5434H118.351ZM105.417 31.4219C107.283 31.4219 108.767 30.7859 109.87 29.4713C110.972 28.1143 111.524 26.3756 111.524 24.2553C111.524 22.0502 110.972 20.3115 109.87 18.9546C108.767 17.5976 107.283 16.9615 105.417 16.9615C103.552 16.9615 102.067 17.64 100.922 18.9546C99.8199 20.3115 99.2687 22.0502 99.2687 24.1705C99.2687 26.3332 99.8199 28.0719 100.922 29.3865C102.025 30.7859 103.552 31.4219 105.417 31.4219Z" fill="black"/>
<path d="M122.169 24.2521C122.169 21.623 122.678 19.3754 123.738 17.4672C124.798 15.5165 126.282 13.9899 128.19 12.9721C130.099 11.912 132.346 11.3607 134.848 11.3607C137.392 11.3607 139.64 11.8696 141.548 12.8873C143.499 13.8626 145.025 15.262 146.085 17.0855C147.188 18.8666 147.782 20.9869 147.782 23.4464C147.782 24.337 147.697 25.1003 147.57 25.7788H129.293V25.9908C129.463 27.8143 130.056 29.2561 131.074 30.2738C132.092 31.334 133.491 31.8428 135.23 31.8428C136.629 31.8428 137.774 31.546 138.707 30.9523C139.64 30.3162 140.276 29.4257 140.573 28.2807H147.4C147.145 29.9346 146.509 31.4612 145.492 32.7758C144.474 34.0904 143.159 35.1929 141.463 35.9562C139.809 36.7195 137.901 37.1012 135.739 37.1012C132.94 37.1012 130.48 36.5923 128.445 35.5322C126.409 34.472 124.84 32.9878 123.738 31.0795C122.72 29.0864 122.169 26.8389 122.169 24.2521ZM140.954 21.2413C140.742 19.7147 140.106 18.5273 139.046 17.7216C138.028 16.8735 136.756 16.4494 135.187 16.4494C133.703 16.4494 132.431 16.8735 131.371 17.764C130.353 18.6121 129.759 19.7571 129.547 21.2413H140.954Z" fill="black"/>
<path d="M157.572 23.9576L148.667 11.6174H156.554L161.77 19.0809L167.113 11.6598H174.491L165.629 24L175 36.8066H167.113L161.346 28.9191L155.621 36.7642H148.242L157.572 23.9576Z" fill="black"/>
<path fill-rule="evenodd" clip-rule="evenodd" d="M19.8031 39.4377C30.7436 39.4377 39.6062 30.6172 39.6062 19.7188C39.6062 8.82047 30.7436 0 19.8031 0C8.86263 0 0 8.82047 0 19.7188C0 30.6172 8.86263 39.4377 19.8031 39.4377ZM19.8031 32.6527C27.8176 32.6527 34.2632 26.207 34.2632 18.277C34.2632 10.3471 27.7752 7.03941 19.8031 7.03941C11.7886 7.03941 5.34302 10.3047 5.34302 18.277C5.30061 26.2494 11.7886 32.6527 19.8031 32.6527Z" fill="black"/>
<path fill-rule="evenodd" clip-rule="evenodd" d="M11.2375 20.614C12.0856 20.614 12.8488 20.2747 13.4425 19.7659C13.7393 20.3172 14.121 20.9108 14.4602 21.5045C15.2235 22.7767 16.0716 24.0913 16.8349 25.0666C17.2165 25.5755 17.6406 26.042 18.0222 26.3812C18.3615 26.6781 18.9551 27.1021 19.6336 27.1021C20.3121 27.1021 20.9058 26.6781 21.245 26.3812C21.669 26.042 22.0931 25.5755 22.4747 25.109C23.2804 24.1337 24.1709 22.8191 24.9766 21.5469C25.3583 20.9108 25.7399 20.3172 26.0791 19.7235C26.6728 20.2747 27.4785 20.6564 28.3266 20.6564C30.1076 20.6564 31.5918 19.2146 31.5918 17.4335C31.5918 15.6525 30.15 14.2107 28.3266 14.2107C26.8848 14.2107 25.6127 15.186 25.231 16.5006C25.1462 16.6278 25.0614 16.7974 24.9766 16.9671C24.4678 17.9 23.7469 19.1298 22.9836 20.3596C22.2203 21.5893 21.3722 22.8191 20.6513 23.6672C20.2697 24.0913 19.9728 24.4305 19.7184 24.6426C19.676 24.685 19.6336 24.685 19.6336 24.7274C19.5912 24.7274 19.5912 24.685 19.5488 24.6426C19.2944 24.4305 18.9975 24.1337 18.6583 23.6672C17.9798 22.7767 17.1741 21.5893 16.4532 20.3596C15.7324 19.1298 15.0539 17.9 14.545 16.9671C14.4602 16.8399 14.4178 16.7126 14.3754 16.6278C13.9938 15.2284 12.7216 14.2107 11.2375 14.2107C9.45646 14.2107 7.97229 15.6525 7.97229 17.4335C7.97229 19.1722 9.41405 20.614 11.2375 20.614Z" fill="black"/>
</svg>
