<svg width="64" height="64" viewBox="0 0 64 64" fill="none" xmlns="http://www.w3.org/2000/svg">
<path d="M32.0535 63.8932C49.6971 63.8932 64.0001 49.5902 64.0001 31.9466C64.0001 14.303 49.6971 0 32.0535 0C14.4099 0 0.106934 14.303 0.106934 31.9466C0.106934 49.5902 14.4099 63.8932 32.0535 63.8932Z" fill="black"/>
<path d="M16.6673 21.3981C16.6673 20.1577 16.5916 18.9546 16.478 17.7126H21.8826L22.0703 20.2356C22.6711 19.3811 24.1378 17.2862 27.9495 17.2862C32.3274 17.2862 33.5717 20.0426 33.9424 20.9717C35.5194 17.8294 38.0932 17.3251 40.0566 17.3251C43.9046 17.3251 45.4517 19.6924 45.8664 20.4674C46.8853 22.1748 46.8127 24.5405 46.8127 26.2478V36.9784H41.1937V25.7906C41.1937 23.6957 40.8924 21.3673 37.9875 21.3673C34.6283 21.3673 34.5527 24.5875 34.5527 27.498V36.9784H28.9304V25.6657C28.9304 24.1529 28.8926 21.3592 25.7984 21.3592C22.2895 21.3592 22.2895 24.4642 22.2895 25.7906V36.9784H16.6673V21.3981Z" fill="white"/>
<path d="M16.478 41.2881H46.8174V46.0584H16.478V41.2881Z" fill="white"/>
</svg>
