<svg width="38" height="38" viewBox="0 0 38 38" fill="none" xmlns="http://www.w3.org/2000/svg">
<path d="M18.3187 17.352C19.4547 17.352 20.3027 17.096 20.8627 16.584C21.4387 16.056 21.7267 15.384 21.7267 14.568V14.4C21.7267 13.52 21.4467 12.864 20.8867 12.432C20.3427 11.984 19.6227 11.76 18.7267 11.76C17.8627 11.76 17.1587 11.952 16.6147 12.336C16.0707 12.704 15.6227 13.208 15.2707 13.848L13.7827 12.696C13.9907 12.36 14.2387 12.032 14.5267 11.712C14.8307 11.376 15.1827 11.08 15.5827 10.824C15.9827 10.568 16.4467 10.36 16.9747 10.2C17.5027 10.04 18.1027 9.96 18.7747 9.96C19.4787 9.96 20.1427 10.056 20.7667 10.248C21.3907 10.424 21.9267 10.696 22.3747 11.064C22.8387 11.416 23.1987 11.856 23.4547 12.384C23.7267 12.912 23.8627 13.512 23.8627 14.184C23.8627 14.728 23.7747 15.216 23.5987 15.648C23.4387 16.08 23.2147 16.456 22.9267 16.776C22.6387 17.096 22.2947 17.368 21.8947 17.592C21.5107 17.816 21.0947 17.984 20.6467 18.096V18.192C21.0947 18.288 21.5267 18.448 21.9427 18.672C22.3747 18.88 22.7507 19.16 23.0707 19.512C23.4067 19.848 23.6707 20.264 23.8627 20.76C24.0707 21.24 24.1747 21.792 24.1747 22.416C24.1747 23.136 24.0387 23.8 23.7667 24.408C23.4947 25 23.1107 25.512 22.6147 25.944C22.1187 26.36 21.5187 26.688 20.8147 26.928C20.1107 27.168 19.3347 27.288 18.4867 27.288C17.7667 27.288 17.1267 27.208 16.5667 27.048C16.0067 26.888 15.5107 26.672 15.0787 26.4C14.6467 26.128 14.2627 25.824 13.9267 25.488C13.6067 25.152 13.3187 24.8 13.0627 24.432L14.5747 23.28C14.7827 23.616 15.0067 23.92 15.2467 24.192C15.5027 24.464 15.7827 24.696 16.0867 24.888C16.3907 25.08 16.7347 25.232 17.1187 25.344C17.5027 25.44 17.9507 25.488 18.4627 25.488C19.6467 25.488 20.5427 25.224 21.1507 24.696C21.7587 24.152 22.0627 23.384 22.0627 22.392V22.2C22.0627 21.208 21.7587 20.448 21.1507 19.92C20.5427 19.376 19.6467 19.104 18.4627 19.104H16.4947V17.352H18.3187Z" fill="#09AA74"/>
<circle cx="19" cy="19" r="18" stroke="#09AA74" stroke-width="2"/>
</svg>
