<svg width="38" height="38" viewBox="0 0 38 38" fill="none" xmlns="http://www.w3.org/2000/svg">
<path d="M24.8467 27H13.8547V24.936L19.3267 19.896C20.1107 19.176 20.7667 18.416 21.2947 17.616C21.8227 16.8 22.0867 15.984 22.0867 15.168V14.88C22.0867 13.952 21.8307 13.2 21.3187 12.624C20.8067 12.048 20.0307 11.76 18.9907 11.76C18.4787 11.76 18.0307 11.832 17.6467 11.976C17.2627 12.12 16.9267 12.32 16.6387 12.576C16.3667 12.832 16.1347 13.136 15.9427 13.488C15.7667 13.824 15.6227 14.192 15.5107 14.592L13.7107 13.896C13.8707 13.4 14.0867 12.92 14.3587 12.456C14.6467 11.976 14.9987 11.552 15.4147 11.184C15.8467 10.816 16.3587 10.52 16.9507 10.296C17.5587 10.072 18.2707 9.96 19.0867 9.96C19.9027 9.96 20.6307 10.08 21.2707 10.32C21.9107 10.56 22.4467 10.896 22.8787 11.328C23.3107 11.76 23.6387 12.272 23.8627 12.864C24.1027 13.456 24.2227 14.112 24.2227 14.832C24.2227 15.488 24.1267 16.096 23.9347 16.656C23.7587 17.216 23.5107 17.752 23.1907 18.264C22.8707 18.76 22.4787 19.248 22.0147 19.728C21.5667 20.208 21.0787 20.688 20.5507 21.168L16.0387 25.224H24.8467V27Z" fill="#09AA74"/>
<circle cx="19" cy="19" r="18" stroke="#09AA74" stroke-width="2"/>
</svg>
