<svg width="64" height="64" viewBox="0 0 64 64" fill="none" xmlns="http://www.w3.org/2000/svg">
<path d="M32 64C49.6731 64 64 49.6731 64 32C64 14.3269 49.6731 0 32 0C14.3269 0 0 14.3269 0 32C0 49.6731 14.3269 64 32 64Z" fill="white"/>
<path d="M63.5 32C63.5 49.397 49.397 63.5 32 63.5C14.603 63.5 0.5 49.397 0.5 32C0.5 14.603 14.603 0.5 32 0.5C49.397 0.5 63.5 14.603 63.5 32Z" stroke="black" stroke-opacity="0.5"/>
<path d="M19.1694 18.6678L22.2998 16.8637L22.7435 17.5902L34.353 10.8858L33.4997 10.3787L32.6416 9.90577L32.232 9.65222L13.2842 20.5987V21.0716L18.7257 17.9413L19.1694 18.6678Z" fill="url(#paint0_linear)"/>
<path d="M19.1694 25.5626L28.2776 20.3112L28.6872 21.0426L40.3309 14.3333L39.4776 13.8262L38.6243 13.3533L38.2099 13.0997L13.2842 27.4593V27.9664L18.7257 24.8361L19.1694 25.5626Z" fill="url(#paint1_linear)"/>
<path d="M19.1694 29.0098L31.2519 22.0226L31.6615 22.7491L43.3052 16.0448L42.4519 15.5669L41.5938 15.0598L41.1842 14.8063L13.2842 30.9114V31.4136L18.7257 28.2541L19.1694 29.0098Z" fill="url(#paint2_linear)"/>
<path d="M19.1694 32.4277L34.3189 23.695L34.7333 24.4264L46.2795 17.7512L45.4213 17.2734L44.5681 16.7712L44.1585 16.5469L13.2842 34.3586V34.8316L18.7257 31.7012L19.1694 32.4277Z" fill="url(#paint3_linear)"/>
<path d="M19.1694 35.875L37.2932 25.4064L37.7077 26.167L49.2538 19.4919L48.3957 18.9848L47.5765 18.507L47.1328 18.2583L13.2842 37.8059V38.2788L18.7257 35.1485L19.1694 35.875Z" fill="url(#paint4_linear)"/>
<path d="M50.5459 20.2184L50.1071 19.9648L13.2842 41.2531V41.7261L18.7257 38.5957L19.1694 39.3222L37.2932 28.8536L37.7077 29.5802L51.1798 21.8323V20.8523V20.5987L50.5459 20.2184Z" fill="url(#paint5_linear)"/>
<path d="M15.6244 43.8177L18.6621 42.077L19.1058 42.8035L37.2004 32.3349L37.6392 33.0907L51.1796 25.2453V24.2653V23.2852V22.8123L15.2148 43.5642L15.6244 43.8177Z" fill="url(#paint6_linear)"/>
<path d="M37.2007 35.7823L37.6395 36.543L51.1799 28.6976V27.7127V26.7326V26.2596L18.1895 45.305L18.599 45.5585L21.7001 43.7544L22.1389 44.4809" fill="url(#paint7_linear)"/>
<path d="M21.5731 47.265L24.7035 45.461L25.1131 46.2216L37.2005 39.2295L37.6393 39.956L51.1797 32.1448V31.1648V30.1798V29.6776L21.1587 47.0115L21.5731 47.265Z" fill="url(#paint8_linear)"/>
<path d="M24.577 48.9717L27.6781 47.2018L28.0877 47.9283L37.2008 42.6769L37.6396 43.4034L51.18 35.5922V34.6122V33.6321V33.125L24.1333 48.7523L24.577 48.9717Z" fill="url(#paint9_linear)"/>
<path d="M27.1079 50.4588L27.5516 50.7123L30.6527 48.9082L31.0623 49.6689L37.2011 46.1241L37.6399 46.8555L51.1803 39.0394V38.0593V37.0451V36.5721L27.1079 50.4588Z" fill="url(#paint10_linear)"/>
<path d="M30.5248 52.419L33.6259 50.649L34.0647 51.3755L37.1999 49.5422L37.6388 50.3028L51.1792 42.4867V41.4774V40.4974V40.0195L30.1104 52.1996L30.5248 52.419Z" fill="url(#paint11_linear)"/>
<path d="M37.3566 12.5925L36.5033 12.1195L35.65 11.6124L35.2063 11.3589L13.2842 24.046V24.519L18.7257 21.3886L19.1694 22.1152L25.3033 18.5752L25.7178 19.3018L37.3566 12.5925Z" fill="url(#paint12_linear)"/>
<defs>
<linearGradient id="paint0_linear" x1="13.2842" y1="15.3619" x2="34.353" y2="15.3619" gradientUnits="userSpaceOnUse">
<stop stop-color="#001C3A"/>
<stop offset="0.57" stop-color="#001E3D"/>
<stop offset="0.69" stop-color="#001F3F"/>
<stop offset="1" stop-color="#002042"/>
</linearGradient>
<linearGradient id="paint1_linear" x1="13.2842" y1="20.5355" x2="40.3309" y2="20.5355" gradientUnits="userSpaceOnUse">
<stop stop-color="#001C3A"/>
<stop offset="0.57" stop-color="#001E3D"/>
<stop offset="0.69" stop-color="#001F3F"/>
<stop offset="1" stop-color="#002042"/>
</linearGradient>
<linearGradient id="paint2_linear" x1="13.2842" y1="23.11" x2="43.3052" y2="23.11" gradientUnits="userSpaceOnUse">
<stop stop-color="#001C3A"/>
<stop offset="0.57" stop-color="#001E3D"/>
<stop offset="0.69" stop-color="#001F3F"/>
<stop offset="1" stop-color="#002042"/>
</linearGradient>
<linearGradient id="paint3_linear" x1="13.2842" y1="25.6892" x2="46.2795" y2="25.6892" gradientUnits="userSpaceOnUse">
<stop stop-color="#001C3A"/>
<stop offset="0.57" stop-color="#001E3D"/>
<stop offset="0.69" stop-color="#001F3F"/>
<stop offset="1" stop-color="#002042"/>
</linearGradient>
<linearGradient id="paint4_linear" x1="13.2842" y1="28.2686" x2="49.249" y2="28.2686" gradientUnits="userSpaceOnUse">
<stop stop-color="#001C3A"/>
<stop offset="0.57" stop-color="#001E3D"/>
<stop offset="0.69" stop-color="#001F3F"/>
<stop offset="1" stop-color="#002042"/>
</linearGradient>
<linearGradient id="paint5_linear" x1="13.2842" y1="30.8479" x2="51.1798" y2="30.8479" gradientUnits="userSpaceOnUse">
<stop stop-color="#001C3A"/>
<stop offset="0.57" stop-color="#001E3D"/>
<stop offset="0.69" stop-color="#001F3F"/>
<stop offset="1" stop-color="#002042"/>
</linearGradient>
<linearGradient id="paint6_linear" x1="15.2148" y1="33.315" x2="51.1796" y2="33.315" gradientUnits="userSpaceOnUse">
<stop stop-color="#001C3A"/>
<stop offset="0.57" stop-color="#001E3D"/>
<stop offset="0.69" stop-color="#001F3F"/>
<stop offset="1" stop-color="#002042"/>
</linearGradient>
<linearGradient id="paint7_linear" x1="18.1895" y1="35.9091" x2="51.1799" y2="35.9091" gradientUnits="userSpaceOnUse">
<stop stop-color="#001C3A"/>
<stop offset="0.57" stop-color="#001E3D"/>
<stop offset="0.69" stop-color="#001F3F"/>
<stop offset="1" stop-color="#002042"/>
</linearGradient>
<linearGradient id="paint8_linear" x1="21.1587" y1="38.4689" x2="51.1797" y2="38.4689" gradientUnits="userSpaceOnUse">
<stop stop-color="#001C3A"/>
<stop offset="0.57" stop-color="#001E3D"/>
<stop offset="0.69" stop-color="#001F3F"/>
<stop offset="1" stop-color="#002042"/>
</linearGradient>
<linearGradient id="paint9_linear" x1="24.1333" y1="41.0484" x2="51.18" y2="41.0484" gradientUnits="userSpaceOnUse">
<stop stop-color="#001C3A"/>
<stop offset="0.57" stop-color="#001E3D"/>
<stop offset="0.69" stop-color="#001F3F"/>
<stop offset="1" stop-color="#002042"/>
</linearGradient>
<linearGradient id="paint10_linear" x1="27.1079" y1="43.6422" x2="51.1803" y2="43.6422" gradientUnits="userSpaceOnUse">
<stop stop-color="#001C3A"/>
<stop offset="0.57" stop-color="#001E3D"/>
<stop offset="0.69" stop-color="#001F3F"/>
<stop offset="1" stop-color="#002042"/>
</linearGradient>
<linearGradient id="paint11_linear" x1="30.1104" y1="46.2217" x2="51.1792" y2="46.2217" gradientUnits="userSpaceOnUse">
<stop stop-color="#001C3A"/>
<stop offset="0.57" stop-color="#001E3D"/>
<stop offset="0.69" stop-color="#001F3F"/>
<stop offset="1" stop-color="#002042"/>
</linearGradient>
<linearGradient id="paint12_linear" x1="13.2842" y1="17.9414" x2="37.3566" y2="17.9414" gradientUnits="userSpaceOnUse">
<stop stop-color="#001C3A"/>
<stop offset="0.57" stop-color="#001E3D"/>
<stop offset="0.69" stop-color="#001F3F"/>
<stop offset="1" stop-color="#002042"/>
</linearGradient>
</defs>
</svg>
