<svg id="Layer_1" data-name="Layer 1" xmlns="http://www.w3.org/2000/svg" viewBox="0 0 438.2 442.86">
  <defs>
    <style>
      .cls-1 {
        fill: #fff;
        stroke: #cbcbcb;
      }

      .cls-1, .cls-3, .cls-4, .cls-6 {
        stroke-width: 4.41px;
      }

      .cls-2 {
        fill: #fabf00;
      }

      .cls-2, .cls-4, .cls-5 {
        fill-opacity: 0.12;
      }

      .cls-3, .cls-6 {
        fill: none;
      }

      .cls-3 {
        stroke: #fabf00;
      }

      .cls-4 {
        fill: #09aa74;
        stroke: #09aa74;
      }

      .cls-5 {
        fill: #327ee8;
      }

      .cls-6 {
        stroke: #327ee8;
      }
    </style>
  </defs>
  <path class="cls-1" d="M329.88,69.94a16.89,16.89,0,0,0-28.52-7.2L11.93,366.37a16.88,16.88,0,0,0,8.09,28l400,101a16.89,16.89,0,0,0,20.42-20.83Z" transform="translate(-5.05 -55.29)"/>
  <g>
    <path class="cls-2" d="M363.52,317.75a8.82,8.82,0,0,1,15,3.79L412.8,454.23A8.83,8.83,0,0,1,402.09,465L274.67,432.81a8.82,8.82,0,0,1-4.31-14.55Z" transform="translate(-5.05 -55.29)"/>
    <path class="cls-3" d="M363.52,317.75a8.82,8.82,0,0,1,15,3.79L412.8,454.23A8.83,8.83,0,0,1,402.09,465L274.67,432.81a8.82,8.82,0,0,1-4.31-14.55Z" transform="translate(-5.05 -55.29)"/>
  </g>
  <path class="cls-4" d="M145.89,262.75a8.82,8.82,0,0,1,15,3.79l34.27,132.69A8.82,8.82,0,0,1,184.47,410L57,377.81a8.82,8.82,0,0,1-4.31-14.55Z" transform="translate(-5.05 -55.29)"/>
  <g>
    <path class="cls-5" d="M303,89.75a8.82,8.82,0,0,1,15,3.79l34.26,132.69A8.82,8.82,0,0,1,341.55,237L214.13,204.81a8.82,8.82,0,0,1-4.31-14.55Z" transform="translate(-5.05 -55.29)"/>
    <path class="cls-6" d="M303,89.75a8.82,8.82,0,0,1,15,3.79l34.26,132.69A8.82,8.82,0,0,1,341.55,237L214.13,204.81a8.82,8.82,0,0,1-4.31-14.55Z" transform="translate(-5.05 -55.29)"/>
  </g>
  <path d="M254,190l2.44.66-.38,1.45.08,0a2.15,2.15,0,0,1,1.14-1,2.66,2.66,0,0,1,1.63-.06,3,3,0,0,1,2.18,1.83,5.79,5.79,0,0,1-.06,3.59,5.91,5.91,0,0,1-1.75,3.16,3,3,0,0,1-2.8.49,2.46,2.46,0,0,1-.77-.35,2.21,2.21,0,0,1-1-1.18,2.48,2.48,0,0,1-.14-.75l-.08,0-1.27,4.76-2.45-.66Zm2.2,8a1.52,1.52,0,0,0,1.27-.17,1.94,1.94,0,0,0,.82-1.2l.4-1.5a1.87,1.87,0,0,0-.11-1.43,1.52,1.52,0,0,0-1-.8,2,2,0,0,0-1.25,0,1.1,1.1,0,0,0-.69.8l-.69,2.56a1.17,1.17,0,0,0,.19,1.06A2,2,0,0,0,256.18,197.92Zm7.95,4a2.19,2.19,0,0,1-1.79-3l2.64-9.84,2.44.66-2.76,10.32,1.09.29-.51,1.9Zm9,2.41a1.68,1.68,0,0,1-1-.71,2,2,0,0,1-.25-1.25l-.09,0a2.09,2.09,0,0,1-1.22,1.05,3.2,3.2,0,0,1-1.79,0,2.85,2.85,0,0,1-1.81-1.23,2.54,2.54,0,0,1-.2-2,2.34,2.34,0,0,1,1.53-1.77,5,5,0,0,1,2.91.06l1.37.36.15-.54a1.31,1.31,0,0,0-1.07-1.76,1.93,1.93,0,0,0-1.24,0,2.84,2.84,0,0,0-.9.52l-1.11-1.68a3.86,3.86,0,0,1,1.64-.85,4.66,4.66,0,0,1,2.3.14,4.24,4.24,0,0,1,2.56,1.55,3.07,3.07,0,0,1,.29,2.61l-1,3.8.81.21-.51,1.9Zm-3-2.41a2,2,0,0,0,1.11,0,.93.93,0,0,0,.67-.74l.28-1-1.19-.32c-1-.25-1.52-.06-1.7.59l-.07.25a.88.88,0,0,0,.11.79A1.52,1.52,0,0,0,270.13,202Zm8.91,4a2.83,2.83,0,0,1-1.76-1.16,2.64,2.64,0,0,1-.13-2.06l1.13-4.24-1.22-.33.51-1.9.61.17a.89.89,0,0,0,.74-.05,1.27,1.27,0,0,0,.37-.65l.38-1.42,2.19.59-.63,2.34,1.72.46-.51,1.9-1.71-.46L279.42,204l1.59.43-.51,1.9Zm5.53-5.78-1.22-.32.51-1.9,1.22.32.27-1a2.58,2.58,0,0,1,1.17-1.7,2.69,2.69,0,0,1,2.1-.13l1.59.42-.51,1.9-1.74-.46-.44,1.65,1.74.46-.51,1.9-1.74-.46-1.81,6.77-2.44-.66Zm7.12,9.38a4.65,4.65,0,0,1-1.63-.77,3.75,3.75,0,0,1-1-1.25,4.55,4.55,0,0,1-.41-1.65,6.24,6.24,0,0,1,.23-2,6.08,6.08,0,0,1,.78-1.81,4.19,4.19,0,0,1,1.17-1.2,3.6,3.6,0,0,1,1.52-.57,5.08,5.08,0,0,1,3.42.91,3.62,3.62,0,0,1,1,1.25,4.09,4.09,0,0,1,.42,1.64,6,6,0,0,1-.22,2,6.44,6.44,0,0,1-.78,1.8,4.11,4.11,0,0,1-1.2,1.22,3.35,3.35,0,0,1-1.51.57A4.47,4.47,0,0,1,291.69,209.56Zm.52-1.93a1.46,1.46,0,0,0,1.24-.15,1.87,1.87,0,0,0,.74-1.16l.47-1.77a1.94,1.94,0,0,0-.05-1.38,1.72,1.72,0,0,0-2.25-.6,2,2,0,0,0-.74,1.17l-.47,1.76a1.88,1.88,0,0,0,.06,1.38A1.47,1.47,0,0,0,292.21,207.63Zm5.34,3.29,2.32-8.67,2.44.65-.5,1.89.08,0a2.66,2.66,0,0,1,.42-.63,2.15,2.15,0,0,1,.59-.5,2.23,2.23,0,0,1,.77-.24,2.39,2.39,0,0,1,.94.08l.43.11-.61,2.28-.61-.16a3.75,3.75,0,0,0-1.68-.15,1.14,1.14,0,0,0-.79.9L300,211.57Zm6.67,1.79,2.33-8.67,2.44.65-.39,1.47.09,0a2.72,2.72,0,0,1,1.11-1,2.34,2.34,0,0,1,1.67-.09,2.68,2.68,0,0,1,1.4.86,2.59,2.59,0,0,1,.56,1.54l.05,0A2.47,2.47,0,0,1,314,207a2.52,2.52,0,0,1,.74-.4,3,3,0,0,1,.87-.15,2.7,2.7,0,0,1,1,.1,2.31,2.31,0,0,1,1.67,1.4,4.18,4.18,0,0,1,0,2.72l-1.46,5.44-2.44-.66,1.4-5.23c.3-1.1.05-1.76-.74-2a1.74,1.74,0,0,0-1.08.05,1.15,1.15,0,0,0-.7.83l-1.5,5.62-2.45-.66,1.4-5.23c.3-1.1.05-1.76-.74-2a1.69,1.69,0,0,0-.55-.06,1.44,1.44,0,0,0-.53.11,1.19,1.19,0,0,0-.7.84l-1.5,5.61Z" transform="translate(-5.05 -55.29)"/>
  <path d="M300.63,423.31a4.7,4.7,0,0,1-1.64-.77,3.66,3.66,0,0,1-1-1.25,4.35,4.35,0,0,1-.4-1.65,6,6,0,0,1,.22-2,6.17,6.17,0,0,1,.79-1.8,4,4,0,0,1,1.17-1.21,3.7,3.7,0,0,1,1.51-.57,4.68,4.68,0,0,1,1.8.15,4.52,4.52,0,0,1,1.62.77,3.44,3.44,0,0,1,1,1.25,4.05,4.05,0,0,1,.43,1.63,6.2,6.2,0,0,1-.23,2,5.86,5.86,0,0,1-.78,1.81,4.33,4.33,0,0,1-1.19,1.22,3.64,3.64,0,0,1-1.52.57A4.61,4.61,0,0,1,300.63,423.31Zm.51-1.93a1.51,1.51,0,0,0,1.25-.14,2,2,0,0,0,.73-1.17l.48-1.76a2,2,0,0,0-.06-1.38,1.68,1.68,0,0,0-2.25-.6,1.91,1.91,0,0,0-.73,1.16l-.48,1.77a2,2,0,0,0,.06,1.38A1.48,1.48,0,0,0,301.14,421.38Zm5.34,3.29L308.8,416l2.45.66-.51,1.88.09,0a2.63,2.63,0,0,1,.41-.63,2.39,2.39,0,0,1,.6-.5,2.16,2.16,0,0,1,.77-.23,2.33,2.33,0,0,1,.93.07l.43.12-.61,2.28-.61-.17a3.73,3.73,0,0,0-1.68-.15,1.14,1.14,0,0,0-.79.91l-1.35,5.07Zm14.31,4.51a3,3,0,0,1-.58,1.15,2.18,2.18,0,0,1-1,.69,4.15,4.15,0,0,1-1.61.17,10.7,10.7,0,0,1-2.26-.4,10.92,10.92,0,0,1-1.88-.66,4.3,4.3,0,0,1-1.16-.74,1.7,1.7,0,0,1-.54-.81,1.62,1.62,0,0,1,0-.9,1.56,1.56,0,0,1,.73-1,2.11,2.11,0,0,1,1.33-.19l.05-.18a1.49,1.49,0,0,1-.8-.78,1.66,1.66,0,0,1-.05-1.08,1.3,1.3,0,0,1,.29-.56,2,2,0,0,1,.48-.35,2.13,2.13,0,0,1,.61-.17,4.75,4.75,0,0,1,.65,0l0-.07a2.57,2.57,0,0,1-.91-1.3,3,3,0,0,1,0-1.59,2.74,2.74,0,0,1,1.47-1.87,4.39,4.39,0,0,1,3-.06,6.18,6.18,0,0,1,1.42.56l.09-.33a1.32,1.32,0,0,1,.59-.9,1.45,1.45,0,0,1,1.06-.05l1.37.37-.48,1.81-1.92-.51,0,.1a2.51,2.51,0,0,1,.86,1.31,3,3,0,0,1,0,1.56,2.73,2.73,0,0,1-1.49,1.85,4.32,4.32,0,0,1-3,0,6.44,6.44,0,0,1-1.48-.59.79.79,0,0,0-.57.59.62.62,0,0,0,.1.56,1.57,1.57,0,0,0,.76.38l2.51.67a3.38,3.38,0,0,1,2.12,1.28A2.48,2.48,0,0,1,320.79,429.18Zm-2.39-.29a.68.68,0,0,0-.14-.66,2.05,2.05,0,0,0-1-.47l-3-.8a1.1,1.1,0,0,0-.34.3,1.7,1.7,0,0,0-.18.39.77.77,0,0,0,.23.81,3.17,3.17,0,0,0,1.34.6l1,.27a3.14,3.14,0,0,0,1.47.14A.72.72,0,0,0,318.4,428.89Zm-.85-6.26a1.64,1.64,0,0,0,1.15,0,1.19,1.19,0,0,0,.61-.8l.05-.19a1.13,1.13,0,0,0-.13-1,1.59,1.59,0,0,0-1-.6,1.7,1.7,0,0,0-1.17,0,1.12,1.12,0,0,0-.58.79l-.06.19a1.22,1.22,0,0,0,.11,1A1.79,1.79,0,0,0,317.55,422.63Zm10.87,7.92a1.65,1.65,0,0,1-1-.71,2,2,0,0,1-.25-1.25l-.1,0a2.06,2.06,0,0,1-1.22,1.05,3.17,3.17,0,0,1-1.78,0,2.85,2.85,0,0,1-1.81-1.23,2.54,2.54,0,0,1-.2-2,2.34,2.34,0,0,1,1.53-1.77,5,5,0,0,1,2.91.06l1.37.36.14-.54a1.51,1.51,0,0,0-.06-1.08,1.46,1.46,0,0,0-1-.68,1.93,1.93,0,0,0-1.24,0,3.07,3.07,0,0,0-.9.52l-1.11-1.68a3.89,3.89,0,0,1,1.65-.85,4.67,4.67,0,0,1,2.3.14,4.21,4.21,0,0,1,2.55,1.55,3.07,3.07,0,0,1,.3,2.61l-1,3.79.81.22-.51,1.9Zm-3-2.41a2,2,0,0,0,1.11,0,.94.94,0,0,0,.68-.74l.27-1-1.18-.32c-1-.26-1.53-.06-1.7.59l-.07.25a.88.88,0,0,0,.11.79A1.53,1.53,0,0,0,325.43,428.14Zm6,3.21,2.32-8.67,2.45.66-.4,1.47.1,0a2.73,2.73,0,0,1,1.12-.95,2.48,2.48,0,0,1,1.74-.07,2.46,2.46,0,0,1,1.77,1.43,4.19,4.19,0,0,1,0,2.73l-1.46,5.43-2.44-.65,1.4-5.24a2.42,2.42,0,0,0,.07-1.31,1.08,1.08,0,0,0-.83-.66,2.05,2.05,0,0,0-.6-.07,1.44,1.44,0,0,0-.58.09,1.28,1.28,0,0,0-.45.32,1.06,1.06,0,0,0-.28.51L333.85,432ZM345,424.72a1.56,1.56,0,0,1-1-.62,1.29,1.29,0,0,1-.1-1l.1-.36a1.19,1.19,0,0,1,.56-.77,1.5,1.5,0,0,1,1.18-.05,1.46,1.46,0,0,1,1,.63,1.2,1.2,0,0,1,.12.95l-.1.37a1.23,1.23,0,0,1-.58.78A1.54,1.54,0,0,1,345,424.72Zm-1.47.6L346,426l-2.32,8.67-2.44-.65Zm5.29,10.92a5.24,5.24,0,0,1-2-1,5.13,5.13,0,0,1-1.23-1.56l1.83-1.07a3.83,3.83,0,0,0,.81,1.08,2.74,2.74,0,0,0,1.19.64,1.81,1.81,0,0,0,1.06.06.81.81,0,0,0,.45-.54c.11-.41-.12-.73-.68-1l-.91-.37c-1.89-.76-2.62-1.92-2.21-3.46a2.71,2.71,0,0,1,.54-1.07,2.59,2.59,0,0,1,.91-.71,3,3,0,0,1,1.21-.3,4.42,4.42,0,0,1,1.46.16,6.3,6.3,0,0,1,1.17.42,3.83,3.83,0,0,1,.85.51,3.13,3.13,0,0,1,.63.63,7,7,0,0,1,.53.74l-1.79,1.06a3.13,3.13,0,0,0-.77-.89,2.39,2.39,0,0,0-1-.53,1.49,1.49,0,0,0-1,0,.63.63,0,0,0-.4.45.87.87,0,0,0,0,.6,1.55,1.55,0,0,0,.66.46l.94.39c1.83.76,2.55,1.89,2.15,3.37a2.65,2.65,0,0,1-.57,1.09,3,3,0,0,1-1,.72,3.61,3.61,0,0,1-1.33.28A5.22,5.22,0,0,1,348.86,436.24Zm11.84,3a1.65,1.65,0,0,1-1-.71,2,2,0,0,1-.25-1.25l-.1,0a2.06,2.06,0,0,1-1.22,1.05,3.17,3.17,0,0,1-1.78,0,2.85,2.85,0,0,1-1.81-1.23,2.54,2.54,0,0,1-.2-2,2.34,2.34,0,0,1,1.53-1.77,5,5,0,0,1,2.91.06l1.37.36.14-.54a1.51,1.51,0,0,0-.06-1.08,1.46,1.46,0,0,0-1-.68,1.93,1.93,0,0,0-1.24,0,3.07,3.07,0,0,0-.9.52L356,430.2a3.8,3.8,0,0,1,1.64-.85,4.55,4.55,0,0,1,2.3.14,4.27,4.27,0,0,1,2.56,1.55,3.1,3.1,0,0,1,.29,2.61l-1,3.79.81.22-.51,1.9Zm-3-2.41a2,2,0,0,0,1.12,0,1,1,0,0,0,.67-.74l.28-1-1.19-.32c-1-.26-1.53-.06-1.7.59l-.07.25a.88.88,0,0,0,.11.79A1.53,1.53,0,0,0,357.71,436.79Zm8.92,4a2.8,2.8,0,0,1-1.76-1.16,2.68,2.68,0,0,1-.14-2.06l1.14-4.24-1.22-.33.51-1.9.61.17a.89.89,0,0,0,.74,0,1.26,1.26,0,0,0,.36-.65l.38-1.42,2.2.59-.63,2.34,1.72.46-.51,1.9-1.72-.46-1.3,4.87,1.58.43-.51,1.9Zm7.08-8.39a1.56,1.56,0,0,1-1-.62,1.27,1.27,0,0,1-.1-1l.1-.37a1.19,1.19,0,0,1,.56-.77,1.54,1.54,0,0,1,1.18-.05,1.46,1.46,0,0,1,1,.63,1.2,1.2,0,0,1,.12.95l-.1.37a1.23,1.23,0,0,1-.58.78A1.54,1.54,0,0,1,373.71,432.4Zm-1.47.6,2.44.65-2.32,8.67-2.45-.65Zm5.86,11.07a4.65,4.65,0,0,1-1.63-.77,3.66,3.66,0,0,1-1-1.25,4.55,4.55,0,0,1-.41-1.65,6.27,6.27,0,0,1,.23-2,5.91,5.91,0,0,1,.78-1.8,4.14,4.14,0,0,1,1.18-1.21,3.65,3.65,0,0,1,1.51-.57,4.71,4.71,0,0,1,1.8.15,4.52,4.52,0,0,1,1.62.77,3.44,3.44,0,0,1,1,1.25,3.89,3.89,0,0,1,.42,1.63,5.91,5.91,0,0,1-.22,2,6.22,6.22,0,0,1-.78,1.81,4.23,4.23,0,0,1-1.2,1.22,3.59,3.59,0,0,1-1.51.57A4.68,4.68,0,0,1,378.1,444.07Zm.52-1.93a1.49,1.49,0,0,0,1.24-.14,1.93,1.93,0,0,0,.74-1.17l.47-1.76a1.93,1.93,0,0,0-.05-1.38,1.49,1.49,0,0,0-1-.75,1.46,1.46,0,0,0-1.24.15,1.92,1.92,0,0,0-.74,1.16l-.47,1.77a1.88,1.88,0,0,0,.06,1.38A1.48,1.48,0,0,0,378.62,442.14Zm5.34,3.29,2.32-8.67,2.44.66-.39,1.47.1,0a2.73,2.73,0,0,1,1.12-1,2.48,2.48,0,0,1,1.74-.07,2.46,2.46,0,0,1,1.77,1.43,4.19,4.19,0,0,1,0,2.73l-1.46,5.43-2.44-.65,1.4-5.24a2.38,2.38,0,0,0,.07-1.3,1.07,1.07,0,0,0-.83-.67,2.05,2.05,0,0,0-.6-.07,1.44,1.44,0,0,0-.58.09,1.42,1.42,0,0,0-.46.32,1.13,1.13,0,0,0-.27.51l-1.51,5.62Z" transform="translate(-5.05 -55.29)"/>
  <path d="M68.76,365.74l2.33-8.66,2.44.65-.39,1.47.1,0a2.63,2.63,0,0,1,1.1-1,2.34,2.34,0,0,1,1.67-.09,2.64,2.64,0,0,1,1.4.86,2.53,2.53,0,0,1,.56,1.54l0,0a2.47,2.47,0,0,1,.53-.59,2.52,2.52,0,0,1,.74-.4,3.11,3.11,0,0,1,.87-.15,2.93,2.93,0,0,1,1,.09A2.36,2.36,0,0,1,82.81,361a4.25,4.25,0,0,1,0,2.72l-1.45,5.44-2.45-.66,1.4-5.23c.3-1.1,0-1.76-.74-2a1.74,1.74,0,0,0-1.08.05,1.13,1.13,0,0,0-.7.83l-1.5,5.62-2.45-.66,1.41-5.23c.29-1.1,0-1.76-.75-2a1.69,1.69,0,0,0-.55-.06,1.44,1.44,0,0,0-.53.11,1.45,1.45,0,0,0-.44.32,1.49,1.49,0,0,0-.26.52l-1.5,5.61Zm18.32,5.12a4.66,4.66,0,0,1-1.68-.78,3.69,3.69,0,0,1-1.5-2.92,6.2,6.2,0,0,1,.24-2,6,6,0,0,1,.76-1.78,4.15,4.15,0,0,1,1.16-1.23,3.58,3.58,0,0,1,1.53-.56,4.6,4.6,0,0,1,1.82.13,4.5,4.5,0,0,1,1.74.86,3.53,3.53,0,0,1,1,1.31,3.9,3.9,0,0,1,.33,1.61,6.13,6.13,0,0,1-.22,1.73l-.19.72-5.57-1.49,0,.14a2.08,2.08,0,0,0,.09,1.49,2,2,0,0,0,1.32.88,2.4,2.4,0,0,0,1.32,0,5.1,5.1,0,0,0,1.09-.5l.82,1.84a3.93,3.93,0,0,1-1.8.65A5.56,5.56,0,0,1,87.08,370.86Zm1.9-7.27a1.49,1.49,0,0,0-1.31.18,1.94,1.94,0,0,0-.75,1.18l0,.13,3,.81,0-.15a2.11,2.11,0,0,0,0-1.37A1.27,1.27,0,0,0,89,363.59ZM95.83,373a2.74,2.74,0,0,1-1.76-1.17,2.6,2.6,0,0,1-.14-2.05l1.14-4.24-1.23-.33.51-1.9.61.16a.82.82,0,0,0,.74-.05,1.14,1.14,0,0,0,.37-.64l.38-1.42,2.2.59L98,364.29l1.72.46-.51,1.9-1.72-.46-1.31,4.87,1.59.43-.51,1.9Zm6.55-11.34,2.45.65-1.35,5,.1,0a2.8,2.8,0,0,1,1.13-1,2.87,2.87,0,0,1,3.5,1.37,4.19,4.19,0,0,1,0,2.73l-1.46,5.43-2.44-.66,1.4-5.23a2.42,2.42,0,0,0,.07-1.31,1.06,1.06,0,0,0-.83-.66,2.06,2.06,0,0,0-.6-.08,1.65,1.65,0,0,0-.58.1,1.28,1.28,0,0,0-.45.32,1.06,1.06,0,0,0-.28.51l-1.51,5.61-2.44-.65Zm10,16a4.65,4.65,0,0,1-1.63-.77,3.55,3.55,0,0,1-1-1.25,4.36,4.36,0,0,1-.41-1.65,6.24,6.24,0,0,1,.22-2,6.17,6.17,0,0,1,.79-1.8,4.11,4.11,0,0,1,1.17-1.21,3.74,3.74,0,0,1,1.52-.57,4.71,4.71,0,0,1,1.8.15,4.36,4.36,0,0,1,1.62.77,3.32,3.32,0,0,1,1,1.25,3.9,3.9,0,0,1,.43,1.63,6.61,6.61,0,0,1-1,3.77,4.2,4.2,0,0,1-1.19,1.22,3.45,3.45,0,0,1-1.52.56A4.42,4.42,0,0,1,112.41,377.65Zm.52-1.93a1.49,1.49,0,0,0,1.24-.14,2,2,0,0,0,.74-1.17l.47-1.77a1.85,1.85,0,0,0-.06-1.37,1.44,1.44,0,0,0-1-.75,1.49,1.49,0,0,0-1.24.14,1.93,1.93,0,0,0-.74,1.17l-.47,1.77a1.91,1.91,0,0,0,0,1.37A1.49,1.49,0,0,0,112.93,375.72ZM124,379l-.08,0a2.39,2.39,0,0,1-.49.57,2.62,2.62,0,0,1-.67.39,2.46,2.46,0,0,1-.78.15,2.58,2.58,0,0,1-.83-.08,3,3,0,0,1-2.18-1.83,5.85,5.85,0,0,1,.06-3.61,6,6,0,0,1,1.74-3.14,3,3,0,0,1,2.81-.49,2.6,2.6,0,0,1,1.36.86,2.08,2.08,0,0,1,.52,1.42l.09,0,1.34-5,2.44.66L126,381.09l-2.45-.66Zm-1.51-.76a2,2,0,0,0,1.23,0,1.18,1.18,0,0,0,.71-.82l.69-2.56a1.12,1.12,0,0,0-.22-1.05,1.82,1.82,0,0,0-1-.65,1.57,1.57,0,0,0-1.29.18,1.9,1.9,0,0,0-.8,1.19l-.4,1.5a2,2,0,0,0,.09,1.44A1.59,1.59,0,0,0,122.46,378.22Zm9.31,4.62a4.73,4.73,0,0,1-1.63-.77,3.66,3.66,0,0,1-1-1.25,4.35,4.35,0,0,1-.4-1.65,6,6,0,0,1,.22-2,6.64,6.64,0,0,1,.78-1.81,4.1,4.1,0,0,1,1.18-1.2,3.7,3.7,0,0,1,1.51-.57,4.7,4.7,0,0,1,1.8.15,4.36,4.36,0,0,1,1.62.77,3.5,3.5,0,0,1,1,1.24,4.1,4.1,0,0,1,.43,1.64,6.24,6.24,0,0,1-.23,2,6.08,6.08,0,0,1-.78,1.81,4.36,4.36,0,0,1-1.2,1.22,3.41,3.41,0,0,1-1.51.56A4.47,4.47,0,0,1,131.77,382.84Zm.52-1.93a1.45,1.45,0,0,0,1.24-.15,1.87,1.87,0,0,0,.74-1.16l.47-1.77a1.94,1.94,0,0,0-.05-1.38,1.71,1.71,0,0,0-2.25-.6,1.92,1.92,0,0,0-.73,1.17l-.48,1.76a1.93,1.93,0,0,0,.06,1.38A1.47,1.47,0,0,0,132.29,380.91Zm7.77,3.94a2.61,2.61,0,0,1-1.69-1.11,2.57,2.57,0,0,1-.1-1.92L140.9,372l2.45.65L140.58,383l1.09.3-.51,1.89Zm6,1.83a4.49,4.49,0,0,1-1.63-.78,3.57,3.57,0,0,1-1-1.25A4.45,4.45,0,0,1,143,383a6.2,6.2,0,0,1,.23-2,6.11,6.11,0,0,1,.78-1.81,4.26,4.26,0,0,1,1.18-1.21,3.5,3.5,0,0,1,1.51-.56,4.94,4.94,0,0,1,3.42.91,3.53,3.53,0,0,1,1,1.25,4.1,4.1,0,0,1,.43,1.64,6.27,6.27,0,0,1-.23,2,6.16,6.16,0,0,1-.78,1.8,4.23,4.23,0,0,1-1.2,1.22,3.3,3.3,0,0,1-1.51.57A4.47,4.47,0,0,1,146.09,386.68Zm.52-1.93a1.45,1.45,0,0,0,1.24-.15,1.9,1.9,0,0,0,.74-1.16l.47-1.77a1.94,1.94,0,0,0-.05-1.38,1.49,1.49,0,0,0-1-.75,1.46,1.46,0,0,0-1.24.15,1.89,1.89,0,0,0-.73,1.16l-.48,1.77a1.88,1.88,0,0,0,.06,1.38A1.47,1.47,0,0,0,146.61,384.75Zm13.2,6.06a3.09,3.09,0,0,1-.58,1.16,2.14,2.14,0,0,1-1,.68,4,4,0,0,1-1.61.17,10.6,10.6,0,0,1-2.26-.39,10.92,10.92,0,0,1-1.88-.66,4.56,4.56,0,0,1-1.16-.74,1.78,1.78,0,0,1-.55-.82,1.83,1.83,0,0,1,0-.9,1.57,1.57,0,0,1,.74-1,2.11,2.11,0,0,1,1.33-.2l0-.18a1.56,1.56,0,0,1-.8-.78,1.7,1.7,0,0,1,0-1.07,1.3,1.3,0,0,1,.29-.56,1.48,1.48,0,0,1,.48-.35,1.78,1.78,0,0,1,.61-.17,3.56,3.56,0,0,1,.65,0v-.07a2.64,2.64,0,0,1-.9-1.31,2.84,2.84,0,0,1,0-1.58,2.72,2.72,0,0,1,1.47-1.87,4.25,4.25,0,0,1,3-.06,5.68,5.68,0,0,1,1.43.56l.09-.33a1.32,1.32,0,0,1,.59-.9,1.45,1.45,0,0,1,1.06-.06l1.37.37-.49,1.82-1.91-.52,0,.1a2.62,2.62,0,0,1,.86,1.31,3,3,0,0,1,0,1.57,2.75,2.75,0,0,1-1.49,1.85,4.44,4.44,0,0,1-3,0,6.1,6.1,0,0,1-1.49-.6.83.83,0,0,0-.56.59.59.59,0,0,0,.1.56,1.49,1.49,0,0,0,.76.38l2.51.68a3.4,3.4,0,0,1,2.12,1.27A2.48,2.48,0,0,1,159.81,390.81Zm-2.39-.28a.67.67,0,0,0-.14-.66,2,2,0,0,0-1-.48l-3-.79a1.21,1.21,0,0,0-.34.29,1.18,1.18,0,0,0-.18.4.73.73,0,0,0,.23.8,3.16,3.16,0,0,0,1.34.61l1,.26a3.15,3.15,0,0,0,1.46.15A.73.73,0,0,0,157.42,390.53Zm-.85-6.27a1.65,1.65,0,0,0,1.15,0,1.11,1.11,0,0,0,.6-.79l.06-.2a1.11,1.11,0,0,0-.13-1,1.65,1.65,0,0,0-1-.6,1.7,1.7,0,0,0-1.17,0,1.16,1.16,0,0,0-.59.78l-.05.2a1.16,1.16,0,0,0,.11,1A1.74,1.74,0,0,0,156.57,384.26Zm8.28-3.05a1.59,1.59,0,0,1-1-.62,1.29,1.29,0,0,1-.1-1l.1-.36a1.22,1.22,0,0,1,.56-.77,1.51,1.51,0,0,1,1.18-.05,1.48,1.48,0,0,1,1,.63,1.15,1.15,0,0,1,.11.95l-.1.36a1.19,1.19,0,0,1-.58.79A1.54,1.54,0,0,1,164.85,381.21Zm-1.47.6,2.45.65-2.33,8.67-2.44-.65Zm5.29,10.92a5.24,5.24,0,0,1-2-1,5.1,5.1,0,0,1-1.22-1.56l1.82-1.07a4,4,0,0,0,.81,1.08,2.8,2.8,0,0,0,1.19.64,1.84,1.84,0,0,0,1.07.06.83.83,0,0,0,.44-.54c.11-.41-.12-.73-.68-1l-.91-.37c-1.88-.76-2.62-1.92-2.21-3.46a2.84,2.84,0,0,1,.54-1.07,2.54,2.54,0,0,1,.92-.71,3,3,0,0,1,1.21-.3,4.48,4.48,0,0,1,1.46.16,6.19,6.19,0,0,1,1.16.42,3.61,3.61,0,0,1,.85.51,2.89,2.89,0,0,1,.63.63,7,7,0,0,1,.53.74L172.48,387a3.13,3.13,0,0,0-.77-.89,2.39,2.39,0,0,0-1-.53,1.46,1.46,0,0,0-.94,0,.64.64,0,0,0-.41.45.81.81,0,0,0,0,.6,1.57,1.57,0,0,0,.65.46l.94.39c1.84.76,2.56,1.89,2.16,3.37a2.56,2.56,0,0,1-.58,1.09,3,3,0,0,1-1,.72,3.66,3.66,0,0,1-1.33.28A5.28,5.28,0,0,1,168.67,392.73Zm8.34,2a2.79,2.79,0,0,1-1.76-1.16,2.68,2.68,0,0,1-.14-2.06l1.14-4.24L175,387l.51-1.9.61.17a.85.85,0,0,0,.74-.05,1.23,1.23,0,0,0,.37-.65l.38-1.42,2.19.59-.63,2.35,1.72.46-.51,1.89-1.72-.46-1.3,4.88,1.58.42-.5,1.9Z" transform="translate(-5.05 -55.29)"/>
</svg>
