<svg width="84" height="89" viewBox="0 0 84 89" fill="none" xmlns="http://www.w3.org/2000/svg">
<path d="M66.0365 88.1252H63.9665V66.5857C63.9665 56.3622 57.0263 47.5762 47.0845 45.2187C46.6533 45.1152 46.3342 44.75 46.2939 44.3102C46.2508 43.8674 46.498 43.4477 46.9034 43.2665C51.2648 41.3259 54.0794 36.9962 54.0794 32.238C54.0794 25.5795 48.6629 20.1602 42.0044 20.1602C35.3459 20.1602 29.9294 25.5767 29.9294 32.238C29.9294 36.999 32.7469 41.3288 37.1054 43.2665C37.5108 43.4477 37.7552 43.8674 37.7149 44.3102C37.6747 44.75 37.3555 45.118 36.9243 45.2187C26.9825 47.5733 20.0423 56.3593 20.0423 66.5857V88.1252H17.9723V66.5857C17.9723 56.2443 24.4583 47.2513 34.0292 43.9105C30.214 41.3029 27.8565 36.9502 27.8565 32.238C27.8565 26.5915 31.1829 21.704 35.9784 19.4385C36.5419 18.024 36.8265 16.529 36.8265 14.988C36.8265 8.32952 31.41 2.91014 24.7515 2.91014C18.093 2.91014 12.6737 8.32665 12.6737 14.988C12.6737 19.7462 15.4912 24.0788 19.8497 26.0165C20.2579 26.1977 20.5023 26.6174 20.4592 27.0602C20.4189 27.5 20.0998 27.868 19.6686 27.9687C9.7268 30.3262 2.78655 39.1007 2.78655 49.3127V70.8752H0.716553V49.3127C0.716553 38.9857 7.20543 29.9984 16.7734 26.6605C12.9612 24.0529 10.6066 19.7002 10.6066 14.988C10.6066 7.18815 16.9517 0.843018 24.7515 0.843018C32.5514 0.843018 38.8965 7.18815 38.8965 14.988C38.8965 16.2013 38.747 17.3915 38.4452 18.5444C40.7193 17.955 43.2838 17.955 45.555 18.5444C45.256 17.3915 45.1037 16.2013 45.1037 14.988C45.1037 7.18815 51.4517 0.843018 59.2515 0.843018C67.0514 0.843018 73.3994 7.18815 73.3994 14.988C73.3994 19.703 71.0419 24.0558 67.2297 26.6634C76.8005 30.0013 83.2894 38.9885 83.2894 49.3155V70.8752H81.2165V49.3127C81.2165 39.1007 74.2763 30.3262 64.3345 27.9687C63.9033 27.8652 63.5842 27.5 63.5439 27.0602C63.5008 26.6174 63.748 26.1977 64.1534 26.0165C68.5119 24.0759 71.3265 19.7462 71.3265 14.988C71.3265 8.32952 65.91 2.91014 59.2515 2.91014C52.593 2.91014 47.1765 8.32665 47.1765 14.988C47.1765 16.529 47.4612 18.024 48.0247 19.4385C52.823 21.7069 56.1494 26.5915 56.1494 32.238C56.1494 36.953 53.7919 41.3058 49.9797 43.9134C59.5505 47.2542 66.0394 56.2472 66.0394 66.5886L66.0365 88.1252ZM51.3597 68.7333L49.8934 67.2671L39.1265 78.0368L34.1068 73.0171L32.6434 74.4833L39.1265 80.9636L51.3597 68.7333Z" fill="#09AA74"/>
</svg>
