<svg width="90" height="87" viewBox="0 0 90 87" fill="none" xmlns="http://www.w3.org/2000/svg">
<path d="M45.0013 86.2853C37.5119 86.2853 30.3589 84.2383 24.3185 80.3686L25.4369 78.6292C31.1438 82.2833 37.9086 84.2124 45.0041 84.2124C51.9156 84.2124 58.8674 82.2287 64.5771 78.6235L65.684 80.3743C59.6436 84.1866 52.3009 86.2853 45.0013 86.2853ZM79.5013 74.7853C74.1739 74.7853 69.8413 70.4498 69.8413 65.1253C69.8413 59.8008 74.1768 55.4653 79.5013 55.4653C84.8258 55.4653 89.1613 59.8008 89.1613 65.1253C89.1613 70.4498 84.8286 74.7853 79.5013 74.7853ZM79.5013 57.5353C75.3153 57.5353 71.9113 60.9393 71.9113 65.1253C71.9113 69.3113 75.3153 72.7153 79.5013 72.7153C83.6873 72.7153 87.0913 69.3113 87.0913 65.1253C87.0913 60.9393 83.6873 57.5353 79.5013 57.5353ZM22.0013 74.7853H1.87626C1.50538 74.7853 1.16326 74.587 0.979256 74.265C0.795256 73.943 0.795256 73.5462 0.982131 73.2271L11.0446 55.9771C11.4155 55.3417 12.462 55.3417 12.8329 55.9771L22.8954 73.2271C23.0823 73.5462 23.0823 73.943 22.8983 74.265C22.7143 74.587 22.3721 74.7853 22.0013 74.7853ZM3.67888 72.7153H20.1986L11.9388 58.556L3.67888 72.7153ZM60.4113 65.1253H58.3413V60.2867C58.3413 54.0767 54.1265 48.7407 48.0919 47.3118C47.6606 47.2112 47.3415 46.8432 47.3013 46.4033C47.261 45.9606 47.5054 45.5408 47.9108 45.3597C50.4954 44.2097 52.1629 41.6423 52.1629 38.8191C52.1629 34.8717 48.9515 31.6603 45.0041 31.6603C41.0568 31.6603 37.8454 34.8717 37.8454 38.8191C37.8454 41.6423 39.5158 44.2097 42.1004 45.3597C42.5058 45.5408 42.7501 45.9606 42.7099 46.4005C42.6696 46.8432 42.3505 47.2112 41.9193 47.3118C35.8818 48.7436 31.667 54.0767 31.667 60.2867V65.1253H29.597V60.2867C29.597 53.9013 33.4553 48.321 39.2196 46.0037C37.0778 44.2758 35.7783 41.6481 35.7783 38.8191C35.7783 33.7303 39.9183 29.5903 45.007 29.5903C50.0986 29.5903 54.2386 33.7303 54.2386 38.8191C54.2386 41.6481 52.9391 44.2758 50.7973 46.0037C56.5616 48.321 60.4199 53.9042 60.4199 60.2867V65.1253H60.4113ZM83.2991 50.828L81.232 50.6698C81.3039 49.747 81.3384 48.8126 81.3384 47.8725C81.3384 34.337 73.8433 22.0176 61.7711 15.7271L62.7256 13.89C75.4878 20.5427 83.4113 33.5636 83.4113 47.8753C83.4113 48.873 83.3739 49.8533 83.2991 50.828ZM6.70338 50.828C6.62863 49.8533 6.59126 48.873 6.59126 47.8753C6.59126 33.5003 14.5148 20.4421 27.2711 13.7922L28.2285 15.6293C16.1593 21.9198 8.66126 34.2766 8.66126 47.8753C8.66126 48.8155 8.69863 49.747 8.76763 50.6727L6.70338 50.828ZM53.6263 20.1603H36.3763C35.8041 20.1603 35.3413 19.6975 35.3413 19.1253V1.87533C35.3413 1.30321 35.8041 0.840332 36.3763 0.840332H53.6263C54.1984 0.840332 54.6613 1.30321 54.6613 1.87533V19.1253C54.6613 19.6975 54.1984 20.1603 53.6263 20.1603ZM37.4113 18.0903H52.5913V2.91033H37.4113V18.0903Z" fill="#327EE8"/>
</svg>
