<svg width="64" height="64" viewBox="0 0 64 64" fill="none" xmlns="http://www.w3.org/2000/svg">
<path fill-rule="evenodd" clip-rule="evenodd" d="M32 0C49.6704 0 64 14.3296 64 32C64 49.6704 49.6704 64 32 64C14.3296 64 0 49.6704 0 32C0 14.3296 14.3296 0 32 0Z" fill="#006AE3"/>
<path d="M30.6812 45.4911V18.8671H33.5804V45.4911H30.6812Z" fill="white"/>
<path d="M45.4401 27.7375L36.4865 30.1119L34.4897 20.8191L37.1521 20.2175L38.2017 24.6207C38.2017 24.6207 40.6209 20.6527 37.3953 16.5439C35.4945 14.4319 34.5921 14.3423 32.4609 14.0095C30.5857 13.7407 26.2273 14.3743 24.9281 19.4623C24.3777 22.7391 24.9985 25.1647 29.2225 28.3391L28.9857 31.8719C28.9857 31.8719 24.2689 28.5503 23.0529 26.2207C22.1121 24.3775 20.4993 20.7359 23.4113 15.6671C24.9793 13.1327 28.0705 10.7007 33.5169 10.9567C36.2561 11.0719 42.9441 14.4191 41.9073 22.2399C41.7281 23.7055 40.9665 25.6575 40.9665 25.6575L44.6401 24.8383L45.4401 27.7375Z" fill="white"/>
<path d="M40.3264 48.5696C38.688 51.0592 35.5328 53.408 30.0992 53.0112C27.36 52.8256 20.768 49.2992 22.0096 41.5104C22.2272 40.0512 23.04 38.1248 23.04 38.1248L19.3472 38.8416L18.624 35.9296L27.6416 33.792L29.3952 43.136L26.7136 43.6672L25.7792 39.232C25.7792 39.232 23.2576 43.1296 26.368 47.328C28.2112 49.4912 29.1072 49.6 31.2384 49.9904C33.1008 50.3104 37.4784 49.7856 38.912 44.736C39.5456 41.4784 38.9888 39.0336 34.8544 35.744L35.1872 32.2176C35.1872 32.2176 39.8144 35.6608 40.9664 38.0224C41.8496 39.8976 43.3664 43.584 40.3264 48.5696Z" fill="white"/>
</svg>
